<svg xmlns="http://www.w3.org/2000/svg" version="1.1" id="svg3839" x="0px" y="0px" width="200px" height="48px" viewBox="0 0 200 48" enable-background="new 0 0 200 48" xml:space="preserve" class="header" preserveAspectRatio="xMidYMid meet"><metadata id="metadata3895"/><defs id="defs3893"><pattern id="EMFhbasepattern" x="0" y="0" width="6" height="6" patternUnits="userSpaceOnUse"/></defs><style type="text/css">.text{fill:	#00355F;}.img{fill:	#EEC218;}</style><g class="text"><g id="g3843" transform="matrix(1.0416532,0,0,1.0416532,-0.02563325,0.01161952)"><g id="g3845"><g id="g3847"><path id="path3849" d="m 56.844,21.82 4.79,-5.75 c 0.014,-0.019 0.016,-0.039 0.008,-0.06 -0.008,-0.011 -0.027,-0.028 -0.047,-0.028 l -3.279,0 c -0.015,0 -0.029,0.007 -0.04,0.021 l -3.093,3.77 -3.041,-3.768 C 52.134,15.99 52.116,15.983 52.104,15.983 l -4.022,0 c -0.018,0 -0.037,0.017 -0.045,0.028 -0.008,0.021 -0.008,0 0,0.06 l 5.047,6.208 -5.104,6.3 c -0.013,0.017 -0.015,0.037 -0.007,0.051 0.011,0 0,0 0,0.031 l 3.22,0 c 0.017,0 0.031,-0.004 0.04,-0.018 l 3.468,-4.229 3.466,4.229 c 0.01,0 0,0 0,0.018 l 4.021,0 c 0.017,0 0.035,-0.01 0.041,-0.029 0.01,-0.015 0.006,-0.035 -0.006,-0.052 l -5.379,-6.76 z"/><path id="path3851" d="m 84.051,15.468 c -3.963,0 -6.838,2.888 -6.838,6.864 0,4 2.9,6.9 6.8,6.9 1.527,0 3.472,-0.556 5.41,-1.372 0.015,-0.005 0.027,-0.019 0.029,-0.042 l 0.006,-2.83 c 0,-0.039 -0.041,-0.072 -0.076,-0.05 -2.082,1.105 -3.554,1.579 -4.943,1.579 -2.252,0 -3.645,-1.221 -3.836,-3.362 l 9.205,0 c 0.018,0 0.035,-0.011 0.045,-0.024 0.004,-0.04 0.099,-1.301 0.099,-1.842 C 89.99,17.9 87.7,15.5 84.1,15.468 Z m 2.715,5.7 -6.061,0 c 0.348,-1.878 1.567,-2.958 3.346,-2.958 1.607,0 2.7,1.3 2.7,2.837 l 0,0.121 z"/><path id="path3853" d="m 108.592,9.283 c -1.131,0 -2.049,0.928 -2.049,2.074 0,1.1 0.9,2 2,2 1.127,0 2.047,-0.905 2.047,-2.016 C 110.639,10.2 109.7,9.3 108.6,9.283 Z"/><path id="path3855" d="m 106.924,15.982 c -0.021,0.007 -0.039,0.026 -0.039,0.052 l 0,12.54 c 0,0 0,0.1 0.1,0.052 l 3.307,0 c 0.027,0 0.049,-0.02 0.049,-0.052 l 0,-12.54 c 0,-0.026 -0.017,-0.045 -0.041,-0.052 l -3.376,0 z"/><path id="path3857" d="m 69.266,15.469 c -0.936,0 -1.885,0.171 -2.877,0.513 l -3.308,0 c -0.029,0 -0.047,0.022 -0.047,0.053 l 0,20.562 c 0.998,-0.137 2.221,-0.49 3.412,-1.339 l -0.002,-6.254 c 0.816,0.1 1.5,0.2 2.1,0.191 4.529,0 7.463,-2.715 7.463,-6.918 C 76.047,18.3 73.3,15.5 69.3,15.469 Z m -0.903,11.27 c -0.6,0 -1.213,-0.086 -1.92,-0.273 l 0.008,-8.046 c 0.826,-0.262 1.545,-0.387 2.256,-0.387 2.305,0 3.9,1.7 3.9,4.224 C 72.559,25 70.9,26.7 68.4,26.739 Z"/><path id="path3859" d="m 100.883,15.907 c -0.971,-0.277 -1.826,-0.406 -2.689,-0.406 -3.943,0 -6.92,2.974 -6.92,6.9 0,3.9 2.6,6.8 6.2,6.776 1.25,0 2.424,-0.314 3.801,-1.022 l -0.004,1.135 c 0.908,-0.175 1.955,-0.538 2.984,-1.269 l 0,-20.02 c -1.01,0.135 -2.211,0.474 -3.412,1.342 l 0,6.564 z m 0,9.789 c -1.037,0.543 -1.961,0.802 -2.832,0.8 -2.053,0 -3.281,-1.449 -3.281,-3.879 0,-2.808 1.57,-4.624 3.998,-4.624 0.67,0 1.3,0.2 2.1,0.523 l 0,7.18 z"/><path id="path3861" d="m 125.084,15.691 -2.687,0.006 c -0.08,0 -0.147,0.066 -0.147,0.143 l 0,0.457 -0.066,0 c -1.24,-0.543 -2.301,-0.795 -3.342,-0.795 -3.717,0 -6.633,3.084 -6.633,7.031 0,4 2.6,6.7 6.5,6.7 1.036,0 2.368,-0.07 3.612,-1.504 l 0,1.613 c 0.881,-0.188 1.922,-0.562 2.908,-1.271 l 0.005,-12.204 C 125.227,15.8 125.2,15.7 125.1,15.691 Z m -5.902,10.836 c -2.197,0 -3.514,-1.445 -3.514,-3.88 0,-2.769 1.551,-4.625 3.854,-4.625 0.619,0 1.4,0.2 2.3,0.722 l 0,6.927 10e-4,0 C 120.809,26.2 120,26.5 119.2,26.527 Z"/><path id="path3863" d="m 38.84,25.445 0,-6.278 7.074,0 c 0.032,0 0.053,-0.022 0.053,-0.05 l 0,-3.1 c 0,-0.028 -0.022,-0.05 -0.053,-0.05 l -7.074,0 0,-4.471 7.147,0 C 46.71,10.39 47.023,9.273 47.15,8.344 l -9.714,0.003 c -0.03,0 -0.061,-0.005 -0.095,-0.005 -1.059,0 -1.933,0.824 -2.037,1.865 -0.004,0.01 -0.011,0.027 -0.013,0.04 l 0,7.894 0,8.527 c 0.002,0 0,0 0,0 0.104,1 1,1.9 2,1.86 0.034,0 0.066,-10e-4 0.095,-10e-4 l 1.422,10e-4 7.146,0 c 0.723,-1.11 1.038,-2.2 1.162,-3.13 l -8.276,0.047 0,0 z"/><polygon id="polygon3865" points="187.7,17.9 188.1,17.9 188.1,16.3 188.7,16.3 188.7,16 187.1,16 187.1,16.3 187.7,16.3 "/><polygon id="polygon3867" points="190.9,16.4 190.9,16.4 190.9,17.9 191.3,17.9 191.3,16 190.7,16 190.2,17.4 189.6,16 189.1,16 189.1,17.9 189.4,17.9 189.4,16.4 189.4,16.4 190,17.9 190.3,17.9 "/><path id="path3869" d="m 152.062,15.41 c -3.874,0 -6.808,2.814 -6.81,6.833 0,4 2.9,6.8 6.8,6.8 3.896,0 6.771,-2.82 6.771,-6.832 C 158.833,18.2 156,15.4 152.1,15.41 Z m 0,11.047 c -1.966,0 -3.421,-1.627 -3.422,-4.188 0,-2.617 1.483,-4.211 3.422,-4.211 1.931,0 3.4,1.6 3.4,4.211 C 155.452,24.8 154,26.5 152.1,26.457 Z"/><path id="path3871" d="m 129.388,25.277 c -0.97,0 -1.798,0.827 -1.798,1.822 0,1 0.8,1.8 1.8,1.8 0.995,0 1.823,-0.8 1.823,-1.795 C 131.211,26.1 130.4,25.3 129.4,25.277 Z"/><path id="path3873" d="m 161.431,25.277 c -0.97,0 -1.798,0.827 -1.798,1.822 0,1 0.8,1.8 1.8,1.8 0.997,0 1.823,-0.8 1.823,-1.795 C 163.254,26.1 162.5,25.3 161.4,25.277 Z"/><path id="path3875" d="m 144.051,24.955 c -1.327,0.863 -2.564,1.287 -3.924,1.287 -2.649,0 -4.407,-1.611 -4.407,-4.064 0,-2.394 1.625,-4.1 4.36,-4.1 0.969,0 2.4,0.4 3.9,0.991 l 0.062,-2.906 c -1.541,-0.566 -2.891,-0.878 -4.258,-0.878 -4.359,0 -7.494,3.135 -7.494,6.866 0,4 2.9,6.9 7.1,6.904 1.597,0 3.345,-0.427 4.707,-1.303 l 0.006,-2.774 C 144.09,25 144.1,24.9 144.1,24.955 Z"/><path id="path3877" d="m 168.978,11.618 -3.365,0.602 0,3.757 -1.991,0 0,2.766 1.99,0 0,4.538 c 0,2 0.1,3.4 1.2,4.4 1.013,0.9 2.4,1.2 3.4,1.389 l 1.381,-2 c -1.856,-0.716 -2.623,-1.009 -2.623,-3.44 l 0,-4.897 3.478,0 0,-2.766 -3.478,0 0,-4.349 z"/><path id="path3879" d="m 181.803,15.67 c -0.887,0 -1.719,0.188 -2.494,0.562 -0.775,0.375 -1.49,0.936 -2.145,1.682 l -0.023,-0.021 0,-9.794 -0.025,0.014 0,-0.014 c -0.977,0.133 -2.115,0.463 -3.281,1.27 l 0.002,19.264 3.306,0 0.022,0 0,-7.049 0,-0.057 c 0,-0.961 0.295,-1.699 0.883,-2.213 0.591,-0.515 1.431,-0.771 2.523,-0.771 0.748,0 1.3,0.2 1.7,0.6 0.383,0.4 0.6,1 0.6,1.758 l 0,7.735 3.336,0 0,-8.448 c 0,-1.486 -0.369,-2.609 -1.107,-3.371 -0.769,-0.717 -1.9,-1.117 -3.3,-1.147 z"/><path id="path3881" d="m 28.428,25.984 c -0.847,0 -1.572,0.637 -1.572,1.6 0,0.9 0.7,1.6 1.6,1.6 0.836,0 1.562,-0.635 1.562,-1.594 C 29.99,26.6 29.3,26 28.4,25.984 Z m 0,3.036 c -0.828,0 -1.34,-0.646 -1.34,-1.437 0,-0.848 0.587,-1.438 1.34,-1.438 0.744,0 1.3,0.6 1.3,1.438 0,0.838 -0.556,1.417 -1.328,1.437 z"/><path id="path3883" d="m 29.169,27.177 c 0,-0.381 -0.233,-0.543 -0.689,-0.543 l -0.718,0 0,1.892 0.312,0 0,-0.81 0.29,0 0.49,0.81 0.352,0 -0.529,-0.828 C 28.96,27.7 29.2,27.5 29.2,27.177 Z m -1.117,0.274 0,-0.582 0.393,0 c 0.198,0 0.4,0 0.4,0.3 0,0.286 -0.218,0.311 -0.464,0.311 l -0.329,0 z"/><path id="path3885" d="M 17.63,11.576 17.023,9.859 11.875,2.978 12.799,2.749 21.677,10.422 26.9,8.9 C 27.513,8.744 28.209,8.709 28.742,8.712 27.101,5.17 24.095,2.264 20.129,0.852 12.288,-1.917 3.7,2.2 0.9,10 0.037,12.428 -0.167,14.931 0.196,17.311 l 12.513,-4.346 4.921,-1.389 z"/><path id="path3887" d="M 27.489,10.997 22.254,12.491 18.761,23.704 17.854,24 18.593,15.436 18.18,13.657 13.275,15.057 0.308,18.1 c 1.029,5 4.6,9.3 9.7,11.171 7.843,2.8 16.461,-1.305 19.251,-9.146 1.203,-3.379 1.126,-6.901 0.023,-10.043 C 28.832,10.4 28.2,10.8 27.5,10.997 Z"/></g><path id="path3889" d="m 18.181,13.656 0.413,1.779 -0.74,8.565 0.907,-0.295 3.493,-11.213 5.235,-1.494 C 28.16,10.783 28.832,10.392 29.292,10.094 29.13,9.634 28.945,9.183 28.742,8.74 28.209,8.735 27.513,8.77 26.9,8.928 l -5.224,1.5 -8.878,-7.678 -0.924,0.229 5.148,6.881 0.607,1.717 -4.946,1.414 -12.512,4.344 c 0.039,0.3 0.1,0.5 0.1,0.774 l 12.968,-3.054 4.942,-1.399 z" class="img"/></g></g><g id="g3720" transform="matrix(1.2628437,0,0,1.2628437,3.6994336,-6.7188806)"><path id="rect3722" d="m 89.153999,34.575001 1.62,0 0,8.399999 -1.62,0 z"/><path id="path3724" d="m 94.449,39.465 c -0.22,0 -0.33,0.12 -0.33,0.36 l 0,0.225 c 0,1.17 0.67,1.755 2.01,1.755 0.75,0 1.342,-0.245 1.777,-0.735 0.435,-0.49 0.653,-1.275 0.653,-2.355 0,-0.96 -0.225,-1.695 -0.675,-2.205 -0.45,-0.51 -1.055,-0.765 -1.815,-0.765 -0.63,0 -1.195,0.1 -1.695,0.3 -0.5,0.2 -0.94,0.445 -1.32,0.735 l -0.525,-1.2 c 0.19,-0.15 0.41,-0.295 0.66,-0.435 0.25,-0.14 0.527,-0.265 0.832,-0.375 0.305,-0.11 0.635,-0.197 0.99,-0.262 0.355,-0.065 0.728,-0.098 1.118,-0.098 0.63,0 1.195,0.098 1.695,0.293 0.5,0.195 0.925,0.48 1.275,0.855 0.35,0.375 0.617,0.832 0.802,1.372 0.185,0.54 0.278,1.155 0.278,1.845 0,1.45 -0.348,2.54 -1.043,3.27 -0.695,0.73 -1.667,1.095 -2.917,1.095 -1.25,0 -2.178,-0.272 -2.783,-0.817 -0.605,-0.545 -0.907,-1.303 -0.907,-2.273 l 0,-0.345 c 0,-1.05 0.51,-1.575 1.53,-1.575 l 1.635,0 0,1.335 -1.245,0 z"/><path id="path3726" d="m 98.229,33.48 c -0.26,0 -0.49,-0.067 -0.69,-0.202 -0.2,-0.135 -0.355,-0.313 -0.465,-0.533 -0.09,0.23 -0.248,0.423 -0.473,0.578 -0.225,0.155 -0.512,0.232 -0.862,0.232 -0.55,0 -0.99,-0.16 -1.32,-0.48 -0.33,-0.32 -0.495,-0.735 -0.495,-1.245 0,-0.23 0.042,-0.452 0.127,-0.667 0.085,-0.215 0.213,-0.408 0.383,-0.578 0.17,-0.17 0.382,-0.305 0.637,-0.405 0.255,-0.1 0.558,-0.15 0.908,-0.15 l 3.27,0 0,1.155 -3.225,0 c -0.26,0 -0.45,0.065 -0.57,0.195 -0.12,0.13 -0.18,0.285 -0.18,0.465 0,0.18 0.057,0.335 0.172,0.465 0.115,0.13 0.268,0.195 0.458,0.195 0.19,0 0.35,-0.062 0.48,-0.187 0.13,-0.125 0.21,-0.273 0.24,-0.443 l 0.84,0 c 0.04,0.14 0.117,0.25 0.232,0.33 0.115,0.08 0.273,0.12 0.473,0.12 l 1.095,0 0,1.155 -1.035,0 z"/><path id="path3728" d="m 107.364,42.975 0,-5.25 c 0,-0.66 -0.173,-1.155 -0.518,-1.485 -0.345,-0.33 -0.832,-0.495 -1.462,-0.495 -0.25,0 -0.49,0.03 -0.72,0.09 -0.23,0.06 -0.443,0.145 -0.638,0.255 -0.195,0.11 -0.365,0.238 -0.51,0.383 -0.145,0.145 -0.252,0.297 -0.322,0.457 l 1.2,1.05 c -0.29,0.12 -0.508,0.29 -0.653,0.51 -0.145,0.22 -0.217,0.505 -0.217,0.855 l 0,3.63 -1.62,0 0,-3.54 c 0,-0.3 0.072,-0.577 0.217,-0.832 0.145,-0.255 0.338,-0.453 0.578,-0.593 l -1.215,-1.02 c 0.09,-0.33 0.252,-0.65 0.487,-0.96 0.235,-0.31 0.523,-0.585 0.863,-0.825 0.34,-0.24 0.727,-0.432 1.162,-0.577 0.435,-0.145 0.903,-0.218 1.403,-0.218 0.58,0 1.095,0.083 1.545,0.248 0.45,0.165 0.825,0.392 1.125,0.682 0.3,0.29 0.527,0.638 0.682,1.043 0.155,0.405 0.233,0.852 0.233,1.342 l 0,5.25 -1.62,0 z"/><path id="path3730" d="m 117.504,40.065 c 0,0.99 -0.258,1.75 -0.773,2.28 -0.515,0.53 -1.342,0.795 -2.482,0.795 -1.13,0 -1.955,-0.265 -2.475,-0.795 -0.52,-0.53 -0.78,-1.24 -0.78,-2.13 l -0.015,-1.065 c 0,-0.3 0.08,-0.575 0.24,-0.825 0.16,-0.25 0.337,-0.487 0.532,-0.712 0.195,-0.225 0.373,-0.443 0.533,-0.653 0.16,-0.21 0.24,-0.43 0.24,-0.66 l 0,-0.24 c 0,-0.09 -0.023,-0.165 -0.068,-0.225 -0.045,-0.06 -0.122,-0.09 -0.232,-0.09 -0.12,0 -0.225,0.05 -0.315,0.15 -0.09,0.1 -0.16,0.235 -0.21,0.405 l -1.245,-0.585 0,-1.305 1.155,0.585 c 0.11,-0.15 0.262,-0.275 0.457,-0.375 0.195,-0.1 0.428,-0.15 0.698,-0.15 0.44,0 0.77,0.133 0.99,0.398 0.22,0.265 0.33,0.632 0.33,1.102 l 0,0.285 c 0,0.31 -0.078,0.59 -0.233,0.84 -0.155,0.25 -0.325,0.485 -0.51,0.705 -0.185,0.22 -0.355,0.438 -0.51,0.653 -0.155,0.215 -0.232,0.447 -0.232,0.697 l 0,1.08 c 0,0.52 0.132,0.918 0.397,1.193 0.265,0.275 0.683,0.412 1.253,0.412 0.55,0 0.96,-0.13 1.23,-0.39 0.27,-0.26 0.405,-0.715 0.405,-1.365 l 0,-1.53 c 0,-0.37 -0.07,-0.635 -0.21,-0.795 -0.14,-0.16 -0.34,-0.24 -0.6,-0.24 l -0.255,0 -0.24,-0.63 1.59,-2.31 1.725,0 -1.695,2.19 c 0.4,0.11 0.717,0.325 0.952,0.645 0.235,0.32 0.353,0.705 0.353,1.155 l 0,1.5 z"/><path id="path3732" d="m 117.129,30.54 c -0.31,0 -0.465,0.155 -0.465,0.465 l 0,0.42 -1.575,0 0,-0.645 c 0,-0.46 0.14,-0.822 0.42,-1.087 0.28,-0.265 0.7,-0.398 1.26,-0.398 l 1.5,0 0,1.245 -1.14,0 z"/><path id="path3734" d="m 124.719,34.995 1.305,4.335 c 0.09,0.32 0.16,0.653 0.21,0.998 0.05,0.345 0.11,0.752 0.18,1.222 l 0.045,0 c 0.01,-0.24 0.017,-0.457 0.022,-0.652 0.005,-0.195 0.015,-0.38 0.03,-0.555 0.015,-0.175 0.033,-0.345 0.053,-0.51 0.02,-0.165 0.045,-0.348 0.075,-0.548 l 0.75,-4.71 1.605,0 -1.41,8.4 -1.785,0 -1.275,-4.065 c -0.12,-0.38 -0.223,-0.797 -0.308,-1.252 -0.085,-0.455 -0.152,-0.923 -0.202,-1.403 l -0.045,0 c -0.05,0.48 -0.118,0.948 -0.203,1.403 -0.085,0.455 -0.187,0.872 -0.307,1.252 l -1.275,4.065 -1.785,0 -1.41,-8.4 1.605,0 0.75,4.695 c 0.03,0.2 0.055,0.385 0.075,0.555 0.02,0.17 0.035,0.343 0.045,0.518 0.01,0.175 0.02,0.36 0.03,0.555 0.01,0.195 0.02,0.412 0.03,0.652 l 0.045,0 c 0.07,-0.47 0.132,-0.88 0.187,-1.23 0.055,-0.35 0.128,-0.685 0.218,-1.005 l 1.29,-4.32 1.455,0 z"/><path id="path3736" d="m 121.764,33.465 0,-1.26 5.145,0 0,-1.395 1.485,0 0,2.655 -6.63,0 z"/><path id="rect3738" d="m 130.539,34.575001 1.62,0 0,8.399999 -1.62,0 z" style=""/><path id="path3740" d="m 140.169,42.975 0,-5.04 c 0,-0.64 -0.178,-1.165 -0.533,-1.575 -0.355,-0.41 -0.872,-0.615 -1.552,-0.615 -0.81,0 -1.435,0.28 -1.875,0.84 -0.44,0.56 -0.66,1.325 -0.66,2.295 0,0.54 0.06,0.993 0.18,1.358 0.12,0.365 0.275,0.66 0.465,0.885 0.19,0.225 0.402,0.385 0.637,0.48 0.235,0.095 0.468,0.142 0.698,0.142 0.2,0 0.385,-0.012 0.555,-0.037 0.17,-0.025 0.34,-0.078 0.51,-0.158 l 0.3,1.215 c -0.19,0.1 -0.408,0.178 -0.653,0.233 -0.245,0.055 -0.522,0.082 -0.832,0.082 -0.45,0 -0.885,-0.082 -1.305,-0.247 -0.42,-0.165 -0.793,-0.42 -1.118,-0.765 -0.325,-0.345 -0.582,-0.783 -0.772,-1.313 -0.19,-0.53 -0.285,-1.155 -0.285,-1.875 0,-0.63 0.087,-1.217 0.262,-1.762 0.175,-0.545 0.435,-1.018 0.78,-1.418 0.345,-0.4 0.775,-0.715 1.29,-0.945 0.515,-0.23 1.108,-0.345 1.778,-0.345 0.62,0 1.165,0.093 1.635,0.278 0.47,0.185 0.862,0.437 1.177,0.757 0.315,0.32 0.55,0.695 0.705,1.125 0.155,0.43 0.233,0.89 0.233,1.38 l 0,5.025 -1.62,0 z"/><path id="path3742" d="m 135.099,33.465 0,-1.26 5.145,0 0,-1.395 1.485,0 0,2.655 -6.63,0 z"/><path id="path3744" d="m 148.959,34.575 1.62,0 0,5.22 c 0,0.5 -0.07,0.955 -0.21,1.365 -0.14,0.41 -0.36,0.763 -0.66,1.058 -0.3,0.295 -0.69,0.522 -1.17,0.682 -0.48,0.16 -1.06,0.24 -1.74,0.24 -1.03,0 -1.853,-0.235 -2.468,-0.705 -0.615,-0.47 -0.922,-1.155 -0.922,-2.055 0,-0.49 0.132,-0.91 0.397,-1.26 0.265,-0.35 0.618,-0.58 1.058,-0.69 -0.19,-0.05 -0.373,-0.132 -0.548,-0.247 -0.175,-0.115 -0.33,-0.258 -0.465,-0.428 -0.135,-0.17 -0.242,-0.365 -0.322,-0.585 -0.08,-0.22 -0.12,-0.46 -0.12,-0.72 0,-0.28 0.05,-0.54 0.15,-0.78 0.1,-0.24 0.245,-0.45 0.435,-0.63 0.19,-0.18 0.422,-0.32 0.697,-0.42 0.275,-0.1 0.588,-0.15 0.938,-0.15 0.33,0 0.62,0.028 0.87,0.083 0.25,0.055 0.47,0.122 0.66,0.202 l -0.18,1.275 c -0.14,-0.06 -0.293,-0.11 -0.458,-0.15 -0.165,-0.04 -0.327,-0.06 -0.487,-0.06 -0.35,0 -0.615,0.08 -0.795,0.24 -0.18,0.16 -0.27,0.37 -0.27,0.63 0,0.17 0.035,0.32 0.105,0.45 0.07,0.13 0.162,0.24 0.277,0.33 0.115,0.09 0.245,0.158 0.39,0.203 0.145,0.045 0.288,0.067 0.428,0.067 l 1.215,0 0.135,1.305 -1.11,0 c -0.42,0 -0.76,0.115 -1.02,0.345 -0.26,0.23 -0.39,0.54 -0.39,0.93 0,0.24 0.05,0.453 0.15,0.638 0.1,0.185 0.232,0.34 0.397,0.465 0.165,0.125 0.36,0.22 0.585,0.285 0.225,0.065 0.463,0.097 0.713,0.097 0.71,0 1.24,-0.177 1.59,-0.532 0.35,-0.355 0.525,-0.853 0.525,-1.493 l 0,-5.205 z"/></g></g></svg>